<svg xmlns="http://www.w3.org/2000/svg" width="1440" height="900" viewBox="0 0 1440 900" role="img" aria-labelledby="title desc">
  <title id="title">Admin e monitoramento do Atendimento Profis</title>
  <desc id="desc">Painel administrativo com status de tecnicos, setores, categorias e relatorios.</desc>
  <rect width="1440" height="900" fill="#f1f5f9"/>
  <rect x="72" y="64" width="1296" height="760" rx="18" fill="#ffffff" stroke="#dbe3ee"/>
  <text x="112" y="122" fill="#0f172a" font-family="Inter,Arial" font-size="34" font-weight="850">Monitoramento e administracao</text>
  <text x="112" y="160" fill="#64748b" font-family="Inter,Arial" font-size="16">Status de tecnicos, setores, categorias e produtividade.</text>
  <rect x="112" y="206" width="380" height="228" rx="18" fill="#ecfeff" stroke="#a5f3fc"/>
  <text x="146" y="252" fill="#0f766e" font-family="Inter,Arial" font-size="22" font-weight="850">Tecnicos online</text>
  <text x="146" y="324" fill="#0f172a" font-family="Inter,Arial" font-size="64" font-weight="850">07</text>
  <text x="146" y="374" fill="#334155" font-family="Inter,Arial" font-size="16">Tempo medio online hoje: 5h 42min</text>
  <rect x="530" y="206" width="380" height="228" rx="18" fill="#eff6ff" stroke="#bfdbfe"/>
  <text x="564" y="252" fill="#1d4ed8" font-family="Inter,Arial" font-size="22" font-weight="850">Produtividade</text>
  <text x="564" y="324" fill="#0f172a" font-family="Inter,Arial" font-size="64" font-weight="850">42</text>
  <text x="564" y="374" fill="#334155" font-family="Inter,Arial" font-size="16">Atendimentos movimentados no periodo</text>
  <rect x="948" y="206" width="340" height="228" rx="18" fill="#fff7ed" stroke="#fed7aa"/>
  <text x="982" y="252" fill="#c2410c" font-family="Inter,Arial" font-size="22" font-weight="850">Transferencias</text>
  <text x="982" y="324" fill="#0f172a" font-family="Inter,Arial" font-size="64" font-weight="850">11</text>
  <text x="982" y="374" fill="#334155" font-family="Inter,Arial" font-size="16">Entre nucleos/setores</text>
  <rect x="112" y="474" width="1176" height="260" rx="18" fill="#fff" stroke="#e2e8f0"/>
  <rect x="112" y="474" width="1176" height="54" rx="18" fill="#f8fafc"/>
  <text x="146" y="508" fill="#475569" font-family="Inter,Arial" font-size="13" font-weight="850">TECNICO</text>
  <text x="464" y="508" fill="#475569" font-family="Inter,Arial" font-size="13" font-weight="850">SETOR</text>
  <text x="720" y="508" fill="#475569" font-family="Inter,Arial" font-size="13" font-weight="850">STATUS</text>
  <text x="970" y="508" fill="#475569" font-family="Inter,Arial" font-size="13" font-weight="850">AUTO ATRIBUICAO</text>
  <text x="146" y="576" fill="#0f172a" font-family="Inter,Arial" font-size="17" font-weight="800">Portfolio Capture</text>
  <text x="464" y="576" fill="#334155" font-family="Inter,Arial" font-size="17">PROFIS</text>
  <rect x="720" y="554" width="110" height="30" rx="15" fill="#ccfbf1"/>
  <text x="746" y="574" fill="#0f766e" font-family="Inter,Arial" font-size="13" font-weight="850">Online</text>
  <rect x="970" y="554" width="96" height="30" rx="15" fill="#dbeafe"/>
  <text x="996" y="574" fill="#1d4ed8" font-family="Inter,Arial" font-size="13" font-weight="850">Ativa</text>
  <text x="146" y="646" fill="#0f172a" font-family="Inter,Arial" font-size="17" font-weight="800">Equipe Profis</text>
  <text x="464" y="646" fill="#334155" font-family="Inter,Arial" font-size="17">Divida ativa</text>
  <rect x="720" y="624" width="120" height="30" rx="15" fill="#fef3c7"/>
  <text x="746" y="644" fill="#a16207" font-family="Inter,Arial" font-size="13" font-weight="850">Intervalo</text>
  <rect x="970" y="624" width="96" height="30" rx="15" fill="#dbeafe"/>
  <text x="996" y="644" fill="#1d4ed8" font-family="Inter,Arial" font-size="13" font-weight="850">Ativa</text>
</svg>
